<svg xmlns="http://www.w3.org/2000/svg" width="514.104" height="88.716" viewBox="0 0 514.104 88.716">
  <g id="Group_4142" data-name="Group 4142" transform="translate(-1087.611 -1475.27)">
    <g id="Component_73_2" data-name="Component 73 2" transform="translate(1193.592 1482.719)">
      <path id="path22" d="M124.856,367.939a8.229,8.229,0,0,1-4.567-.906,3.335,3.335,0,0,1-1.414-2.936,11.892,11.892,0,0,1,.362-2.537l4.93-19.864a7.9,7.9,0,0,1,2.972-4.821,9.57,9.57,0,0,1,5.763-1.559h18.124l-1.957,7.793H136.382a3.154,3.154,0,0,0-1.7.363,2.574,2.574,0,0,0-.761,1.45l-3.262,13.231a6.713,6.713,0,0,0,0,.834q0,.979,1.74.979h16.384l9.5-38.314h10.657l-11.491,46.325Z" transform="translate(-118.868 -321.65)" fill="#fff"/>
      <path id="path26" d="M136.915,358.069a8.626,8.626,0,0,1-4.64-.906,3.262,3.262,0,0,1-1.378-2.936,11.887,11.887,0,0,1,.363-2.537l4.93-19.864A8.591,8.591,0,0,1,138.945,327,9.424,9.424,0,0,1,145,325.445h25.845a7.25,7.25,0,0,1,4.1.942,3.226,3.226,0,0,1,1.269,2.791,10.586,10.586,0,0,1-.326,2.392L172.728,344.4H147.355l1.269-5.4h15.3l1.124-4.386a2.249,2.249,0,0,0,0-.834.725.725,0,0,0-.326-.725,2.9,2.9,0,0,0-1.232,0H148.3a2.9,2.9,0,0,0-1.74.326,2.791,2.791,0,0,0-.761,1.486L142.171,348.9v.58a1.343,1.343,0,0,0,0,.4.725.725,0,0,0,.4.761,2.826,2.826,0,0,0,1.341.217h25.736l-1.812,7.25Z" transform="translate(-87.321 -311.78)" fill="#fff"/>
      <path id="path30" d="M177.651,365.918H143.36l10.874-43.5h11.491l-8.7,34.726h22.8Z" transform="translate(-54.582 -319.629)" fill="#fcb948"/>
      <path id="path34" d="M184.853,331.047l-12.361,20.879h13.956Zm2.5,34.871-.544-6.742H168.4l-3.915,6.742H153.39l26.57-43.5H195l3.915,43.5Z" transform="translate(-28.255 -319.629)" fill="#fcb948"/>
      <path id="path38" d="M202.766,365.918l-1.921-31.137-18.559,31.137H169.417l-1.957-43.5h11.781l.834,31.971,18.487-31.971h11.454l1.595,31.9,17.435-31.9h11.273l-24.685,43.5Z" transform="translate(8.676 -319.629)" fill="#fcb948"/>
      <path id="path42" d="M194.108,358.043,187.33,325.42h11.418l4.35,23.742,16.783-23.742h10.874L206.8,358.043Z" transform="translate(60.831 -311.754)" fill="#fff"/>
      <path id="path46" d="M203.947,358.068a8.555,8.555,0,0,1-4.64-.906,3.371,3.371,0,0,1-1.414-2.936,11.928,11.928,0,0,1,.4-2.538l4.894-19.864A8.771,8.771,0,0,1,205.941,327a9.569,9.569,0,0,1,6.09-1.559h25.809a7.25,7.25,0,0,1,4.132.942,3.263,3.263,0,0,1,1.232,2.791,10.549,10.549,0,0,1-.29,2.392l-3.19,12.832H214.35l1.3-5.4h15.261l1.124-4.386a7.238,7.238,0,0,0,0-.834.761.761,0,0,0-.326-.725,3.009,3.009,0,0,0-1.269,0H215.293a2.863,2.863,0,0,0-1.74.326,2.79,2.79,0,0,0-.761,1.486L209.167,348.9a1.811,1.811,0,0,0,0,.58,1.343,1.343,0,0,0,0,.4.761.761,0,0,0,.362.761,2.972,2.972,0,0,0,1.377.218h25.736l-1.812,7.25Z" transform="translate(88.545 -311.779)" fill="#fff"/>
      <path id="path50" d="M209.62,358.043,217.7,325.42h10.258l-.906,3.625a8.663,8.663,0,0,1,3.226-2.719,10.112,10.112,0,0,1,4.277-.834h11.092l-1.957,7.793h-15.26a3.081,3.081,0,0,0-1.7.363,2.319,2.319,0,0,0-.87,1.45L220.2,358.116Z" transform="translate(119.338 -311.754)" fill="#fff"/>
      <path id="path54" d="M216.6,382.962l1.957-7.793h25.374a2.791,2.791,0,0,0,1.776-.4c.326-.254,4.64-11.926,4.857-12.65l1.051-4.023H229.867a8.3,8.3,0,0,1-4.567-.906,3.371,3.371,0,0,1-1.414-2.936,11.915,11.915,0,0,1,.4-2.537l6.488-26.244h10.548l-5.8,23.416a3.642,3.642,0,0,1,0,.435,1.488,1.488,0,0,0,0,.4c0,.689.58,1.051,1.812,1.051h16.239l6.271-25.374h10.621l-14.028,51.11a8.591,8.591,0,0,1-2.791,4.857,9.788,9.788,0,0,1-6.09,1.522Z" transform="translate(137.659 -311.807)" fill="#fff"/>
      <path id="Path_4524" data-name="Path 4524" d="M119.52,338.743h2.32v10.512h6.67v1.776H119.7Zm19.973,10.512v1.776h-9.316V338.6h9.207v1.957h-6.778v3.226h6.017v1.885h-6.017v3.444Zm10.874-4.422h2.211V349.8a7.8,7.8,0,0,1-2.247,1.16,8.226,8.226,0,0,1-2.646.4,7.249,7.249,0,0,1-3.625-.8,6.488,6.488,0,0,1-2.392-8.881,6.126,6.126,0,0,1,2.429-2.284,7.539,7.539,0,0,1,3.625-.834,8.3,8.3,0,0,1,2.827.508,5.763,5.763,0,0,1,2.175,1.522l-1.45,1.414a4.857,4.857,0,0,0-3.444-1.414,5.076,5.076,0,0,0-2.32.544,4.205,4.205,0,0,0-1.631,1.559,4.712,4.712,0,0,0,0,4.531,4.205,4.205,0,0,0,1.631,1.559,4.532,4.532,0,0,0,2.284.544,4.821,4.821,0,0,0,2.574-.616Zm13.3,3.625h-6.162l-1.232,2.864h-2.392l5.582-12.433h2.284l5.618,12.433h-2.429Zm-.761-1.812-2.356-5.437-2.32,5.437Zm6.017-7.757h2.284V349.4h6.525v1.631h-8.808Zm30.267,0h5.437a7.793,7.793,0,0,1,3.625.8,5.655,5.655,0,0,1,2.429,2.175,6.017,6.017,0,0,1,.834,3.262,6.09,6.09,0,0,1-.834,3.262,5.656,5.656,0,0,1-2.429,2.175,7.249,7.249,0,0,1-3.625.761h-5.437Zm5.328,10.512a5.4,5.4,0,0,0,2.392-.544,3.625,3.625,0,0,0,1.631-1.486,4.785,4.785,0,0,0,.544-2.247,4.422,4.422,0,0,0-.58-2.247,3.625,3.625,0,0,0-1.6-1.486,5.508,5.508,0,0,0-2.392-.544h-3.045V349.4Zm18.668,0v1.631h-9.316V338.6h9.062v1.957h-6.742v3.226h5.981v1.885h-5.981v3.444Zm2.574-10.512h2.32V349.4h6.525v1.631h-8.845Zm10.657,0h2.32v12.143h-2.32Zm16.964,0-5.256,12.143h-2.247L240.444,338.6h2.5l4.132,9.606,4.168-9.606ZM264.041,349.4v1.631h-9.352V338.6h9.1v1.957h-6.778v3.226h6.017v1.885h-6.017v3.444Zm10.874,1.921-2.574-3.625H269.08v3.625h-2.32V338.888h5.111a7.539,7.539,0,0,1,2.827.544,3.915,3.915,0,0,1,2.465,3.879,4.1,4.1,0,0,1-.652,2.429,4.351,4.351,0,0,1-1.994,1.522l2.864,4.06Zm0-8.011a2.248,2.248,0,0,0-.761-1.812,3.623,3.623,0,0,0-2.32-.652h-2.682v4.966h2.682a3.624,3.624,0,0,0,2.32-.652,2.32,2.32,0,0,0,.689-1.994Zm10.113,3.625v4.1h-2.32v-4.35l-4.894-8.083h2.465l3.625,6.053,3.625-6.053h2.284Zm28.527-6.09h-4.132v-1.957h10.548v1.957H315.84v10.186h-2.465Zm17.508,8.554v1.631h-9.352V338.6h9.1v1.957h-6.778v3.226h6.017v1.885h-6.017v3.444Zm8.265,2.1a7.031,7.031,0,0,1-3.407-.8,6.371,6.371,0,0,1,.036-11.164,7.249,7.249,0,0,1,3.407-.834,7.5,7.5,0,0,1,2.791.544,5.618,5.618,0,0,1,2.139,1.559l-1.523,1.377a4.35,4.35,0,0,0-3.3-1.45,4.786,4.786,0,0,0-2.32.58,4.022,4.022,0,0,0-1.559,1.559,4.64,4.64,0,0,0,0,4.495,3.625,3.625,0,0,0,1.559,1.559,4.785,4.785,0,0,0,2.32.58,4.277,4.277,0,0,0,3.3-1.486l1.522,1.414a5.473,5.473,0,0,1-2.175,1.559,6.6,6.6,0,0,1-2.864.363Zm18.124-12.614v12.143h-2.32V345.7h-6.416v5.328H346.4V338.6h2.32v5.183h6.416v-5.147Zm14.5,0v12.143h-1.885l-6.887-8.41v8.41H360.9V338.6h1.921l6.851,8.446V338.6Zm9.171,12.614a7.249,7.249,0,0,1-3.444-.8,6.271,6.271,0,0,1-3.262-5.582,6.162,6.162,0,0,1,3.262-5.582,7.537,7.537,0,0,1,3.444-.834,7.251,7.251,0,0,1,3.407.834,6.126,6.126,0,0,1,2.428,2.284,6.489,6.489,0,0,1,.87,3.3,6.38,6.38,0,0,1-.87,3.262,6.235,6.235,0,0,1-2.429,2.32,6.922,6.922,0,0,1-3.48.653Zm0-2.03a4.5,4.5,0,0,0,2.247-.543,4.024,4.024,0,0,0,1.559-1.559,4.93,4.93,0,0,0,0-4.495,4.023,4.023,0,0,0-1.559-1.559,4.529,4.529,0,0,0-2.247-.58,4.421,4.421,0,0,0-2.247.58,4.024,4.024,0,0,0-1.559,1.559,4.64,4.64,0,0,0,0,4.495,4.023,4.023,0,0,0,1.559,1.559,4.39,4.39,0,0,0,2.175.4Zm9.135-10.584h2.32V349.4H399.1v1.631h-8.845ZM406.5,351.5a6.924,6.924,0,0,1-3.407-.8,6.235,6.235,0,0,1-2.429-2.32,6.379,6.379,0,0,1-.87-3.262,6.6,6.6,0,0,1,.87-3.3,6.416,6.416,0,0,1,2.429-2.284,7.251,7.251,0,0,1,3.407-.834,7.538,7.538,0,0,1,3.625.834,6.308,6.308,0,0,1,2.392,2.284,6.162,6.162,0,0,1,.87,3.3,6.054,6.054,0,0,1-.87,3.262,6.381,6.381,0,0,1-2.392,2.32,7.249,7.249,0,0,1-3.7.653Zm0-2.03a4.387,4.387,0,0,0,2.247-.544,4.021,4.021,0,0,0,1.559-1.558,4.64,4.64,0,0,0,0-4.495,4.022,4.022,0,0,0-1.559-1.559,4.422,4.422,0,0,0-2.247-.58,4.53,4.53,0,0,0-2.247.58,4.024,4.024,0,0,0-1.559,1.559,4.93,4.93,0,0,0,0,4.495,4.023,4.023,0,0,0,1.559,1.559,4.5,4.5,0,0,0,2.175.4Zm17.653-4.495h2.211v4.966a7.8,7.8,0,0,1-2.247,1.16,8.226,8.226,0,0,1-2.646.4,7.249,7.249,0,0,1-3.625-.8,6.489,6.489,0,0,1-2.392-8.881,6.126,6.126,0,0,1,2.429-2.284,7.537,7.537,0,0,1,3.444-.834,8.517,8.517,0,0,1,2.864.508,5.947,5.947,0,0,1,2.139,1.523l-1.45,1.414a4.857,4.857,0,0,0-3.444-1.414,5.183,5.183,0,0,0-2.32.544,4.205,4.205,0,0,0-1.631,1.559,5,5,0,0,0,0,4.531,4.2,4.2,0,0,0,1.631,1.559,4.567,4.567,0,0,0,2.32.544,4.785,4.785,0,0,0,2.537-.616Zm5.22-6.09h2.32v12.143h-2.32ZM444.375,349.4v1.631H435.06V338.6h9.062v1.957H437.38v3.226h5.981v1.885H437.38v3.444Zm6.452,2.1a9.136,9.136,0,0,1-2.791-.4,5.837,5.837,0,0,1-2.1-1.087l.8-1.776a5.838,5.838,0,0,0,1.885.979,6.413,6.413,0,0,0,2.211.362,3.625,3.625,0,0,0,2.066-.435,1.3,1.3,0,0,0,.689-1.16,1.16,1.16,0,0,0-.4-.87,2.464,2.464,0,0,0-.942-.544l-1.631-.471-2.284-.652a4.531,4.531,0,0,1-1.522-1.087,2.828,2.828,0,0,1-.616-1.921,3.625,3.625,0,0,1,.544-1.885,4.133,4.133,0,0,1,1.7-1.341,7.251,7.251,0,0,1,2.755-.507,9.308,9.308,0,0,1,2.247.29,5.869,5.869,0,0,1,1.885.834l-.725,1.776a8.05,8.05,0,0,0-1.7-.725,8.779,8.779,0,0,0-1.7-.254,3.625,3.625,0,0,0-2.066.471,1.45,1.45,0,0,0-.652,1.232,1.16,1.16,0,0,0,.4.87,2.464,2.464,0,0,0,.942.544l1.595.435a21.03,21.03,0,0,1,2.284.652,4.169,4.169,0,0,1,1.522,1.087,2.754,2.754,0,0,1,.652,1.921,3.371,3.371,0,0,1-.58,1.849,3.88,3.88,0,0,1-1.7,1.341,6.486,6.486,0,0,1-2.827.326Z" transform="translate(-117.157 -277.266)" fill="#fff"/>
      <path id="path94" d="M137.64,342.522h0a2.682,2.682,0,0,1,5.365,0h0a2.682,2.682,0,0,1-5.365,0h0" transform="translate(-69.596 -273.905)" fill="#fff"/>
      <path id="path94-2" d="M169.33,342.322h0a2.719,2.719,0,0,1,5.4,0h0a2.719,2.719,0,0,1-5.4,0h0" transform="translate(13.584 -273.704)" fill="#fff"/>
    </g>
    <g id="Group_4110" data-name="Group 4110" transform="translate(1087.611 1475.27)">
      <g id="Ellipse_63-4" data-name="Ellipse 63-4" transform="translate(55.929 80.408)">
        <circle id="Ellipse_114" data-name="Ellipse 114" cx="3.461" cy="3.461" r="3.461" fill="#fcb948"/>
      </g>
      <path id="Path_4574" data-name="Path 4574" d="M135.462,401.621a43.916,43.916,0,0,1-28.9-76.928,1.817,1.817,0,0,1,2.553,0,1.774,1.774,0,0,1,0,2.553,40.281,40.281,0,0,0,26.522,70.568,36.586,36.586,0,0,0,3.764,0,1.8,1.8,0,1,1,.346,3.591C138.187,401.534,136.8,401.621,135.462,401.621Z" transform="translate(-91.603 -312.904)" fill="#fff"/>
      <path id="Path_4575" data-name="Path 4575" d="M129.446,400.713a1.9,1.9,0,0,1-1.428-.692,1.86,1.86,0,0,1,.3-2.553,39.892,39.892,0,0,0,15.619-31.8A40.325,40.325,0,0,0,103.7,325.386h-.736a1.774,1.774,0,0,1-1.817-1.774,1.86,1.86,0,0,1,1.774-1.86h.779a43.872,43.872,0,0,1,27.085,78.7,1.861,1.861,0,0,1-1.341.259Z" transform="translate(-59.844 -320.953)" fill="#fff"/>
      <path id="Path_4576" data-name="Path 4576" d="M97.188,321.888a1.385,1.385,0,0,0-.346,1.558,71.563,71.563,0,0,1,4.759,19.9,1.428,1.428,0,0,0,.606,1.038,29.641,29.641,0,0,1,6.4,6.663l.865,1.168-5.279-3.634a1.385,1.385,0,0,0-2.207,1.168v.216c.346,17.653,8.653,25.96,13.283,29.508a24,24,0,0,0,5.149,2.812,9.7,9.7,0,0,0,1.99.649h0L128.643,397a1.514,1.514,0,0,0,2.034.736,1.384,1.384,0,0,0,.606-.692,1.3,1.3,0,0,0,0-1L118.3,360.612c2.6,5.581,9.432,20.335,9.475,20.206a21.2,21.2,0,0,0,.519-9.778,81.858,81.858,0,0,0-5.235-19.643,1.3,1.3,0,0,0-.909-.865,1.385,1.385,0,0,0-1.774,1.125l-.562,3.548-.3-1.471a28.989,28.989,0,0,1-.3-10.3,1.255,1.255,0,0,0,0-.952,50.621,50.621,0,0,0-15.576-17.826,36.148,36.148,0,0,0-4.932-2.942A1.385,1.385,0,0,0,97.188,321.888Z" transform="translate(-74.531 -321.565)" fill="#fff"/>
    </g>
  </g>
</svg>
